# Blender v2.77 (sub 0) OBJ File: ''
# www.blender.org
mtllib moving_claw.mtl
o Mocing_claw
v -1.212935 6.238153 -1.379082
v 0.048806 8.384248 -1.607742
v -1.212935 6.251396 -1.254786
v 0.048806 8.397491 -1.483446
v -1.249402 6.203682 -1.249702
v -1.249402 6.190439 -1.373999
v -1.296293 6.166033 -1.245691
v -1.296293 6.152790 -1.369987
v -1.350882 6.140637 -1.242985
v -1.350882 6.127393 -1.367281
v -1.409997 6.128968 -1.241742
v -1.409997 6.115725 -1.366038
v -1.470202 6.131707 -1.242033
v -1.470202 6.118463 -1.366330
v -1.527999 6.148692 -1.243843
v -1.527999 6.135449 -1.368140
v -1.580028 6.178938 -1.247066
v -1.580028 6.165695 -1.371362
v -1.623267 6.220687 -1.251514
v -1.623267 6.207444 -1.375810
v -1.655201 6.271512 -1.256929
v -1.655201 6.258268 -1.381226
v -1.673975 6.328459 -1.262997
v -1.673975 6.315216 -1.387293
v -1.678498 6.388219 -1.269364
v -1.678498 6.374976 -1.393660
v -1.668508 6.447319 -1.275661
v -1.668508 6.434075 -1.399957
v -1.644584 6.502324 -1.281521
v -1.644584 6.489081 -1.405818
v -0.382843 8.635176 -1.634478
v -0.382843 8.648419 -1.510181
v -0.346376 8.696133 -1.515265
v -0.346376 8.682890 -1.639562
v -0.299485 8.733782 -1.519277
v -0.299485 8.720539 -1.643573
v -0.244897 8.759179 -1.521983
v -0.244897 8.745935 -1.646279
v -0.185782 8.770847 -1.523226
v -0.185782 8.757604 -1.647522
v -0.125576 8.768109 -1.522934
v -0.125576 8.754866 -1.647231
v -0.067779 8.751123 -1.521124
v -0.067779 8.737880 -1.645421
v -0.015750 8.720878 -1.517902
v -0.015750 8.707634 -1.642198
v 0.027489 8.679129 -1.513453
v 0.027489 8.665885 -1.637750
v 0.059423 8.628304 -1.508038
v 0.059423 8.615061 -1.632335
v 0.078197 8.571357 -1.501971
v 0.078197 8.558113 -1.626267
v 0.082720 8.511597 -1.495603
v 0.082720 8.498353 -1.619900
v 0.072730 8.452497 -1.489306
v 0.072730 8.439253 -1.613603
v -0.531371 10.338804 -2.132738
v -0.531371 10.372174 -1.819550
v -0.565681 10.400109 -1.822526
v -0.565681 10.366739 -2.135714
v -0.589630 10.437219 -1.826480
v -0.589630 10.403850 -2.139668
v -0.600874 10.479872 -1.831025
v -0.600874 10.446503 -2.144213
v -0.598312 10.523892 -1.835715
v -0.598312 10.490523 -2.148903
v -0.582196 10.564972 -1.840092
v -0.582196 10.531602 -2.153280
v -0.554103 10.599088 -1.843727
v -0.554103 10.565719 -2.156915
v -0.516783 10.622902 -1.846264
v -0.516783 10.589533 -2.159452
v -0.473889 10.634083 -1.847455
v -0.473889 10.600714 -2.160643
v -0.429619 10.631536 -1.847184
v -0.429619 10.598166 -2.160372
v -0.388308 10.615511 -1.845477
v -0.388308 10.582141 -2.158664
v 0.155501 10.266011 -2.124982
v 0.155501 10.299381 -1.811794
v 0.184732 10.276826 -1.809391
v 0.184732 10.243457 -2.122579
v 0.207097 10.247516 -1.806268
v 0.207097 10.214147 -2.119456
v 0.221070 10.213449 -1.802638
v 0.221070 10.180080 -2.115826
v 0.446960 9.323202 -2.024528
v 0.446960 9.356571 -1.711340
v 0.451590 9.320069 -1.707451
v 0.451590 9.286700 -2.020639
v 0.446561 9.283619 -1.703568
v 0.446561 9.250250 -2.016756
v 0.432217 9.249705 -1.699954
v 0.432217 9.216336 -2.013142
v -0.521540 7.594091 -1.840297
v -0.521540 7.627460 -1.527109
v -0.549633 7.593344 -1.523474
v -0.549633 7.559975 -1.836662
v -0.586953 7.569530 -1.520937
v -0.586953 7.536160 -1.834125
v -0.629848 7.558349 -1.519745
v -0.629848 7.524980 -1.832933
v -0.674117 7.560896 -1.520017
v -0.674117 7.527526 -1.833205
v -0.715429 7.576921 -1.521724
v -0.715429 7.543552 -1.834912
v -0.749738 7.604856 -1.524700
v -0.749738 7.571487 -1.837888
v -0.773687 7.641966 -1.528654
v -0.773687 7.608597 -1.841842
v -0.784931 7.684619 -1.533199
v -0.784931 7.651250 -1.846387
v -0.782370 7.728640 -1.537889
v -0.782370 7.695271 -1.851077
v -0.766254 7.769719 -1.542266
v -0.766254 7.736349 -1.855454
v 0.157873 9.308198 -2.022930
v 0.157873 9.341567 -1.709742
v -0.038244 10.052137 -2.102194
v -0.038244 10.085507 -1.789006
vn 0.8633 -0.5019 0.0535
vn 0.7962 -0.6017 0.0641
vn 0.6282 -0.7737 0.0824
vn 0.4238 -0.9007 0.0960
vn 0.1947 -0.9753 0.1039
vn -0.0457 -0.9933 0.1058
vn -0.2834 -0.9536 0.1016
vn -0.5047 -0.8584 0.0915
vn -0.6966 -0.7134 0.0760
vn -0.8481 -0.5269 0.0561
vn -0.9502 -0.3098 0.0330
vn -0.9972 -0.0746 0.0080
vn -0.9862 0.1648 -0.0176
vn -0.9178 0.3947 -0.0421
vn -0.8633 0.5019 -0.0535
vn -0.7962 0.6017 -0.0641
vn -0.6282 0.7737 -0.0824
vn -0.4238 0.9007 -0.0960
vn -0.1947 0.9753 -0.1039
vn 0.0457 0.9933 -0.1058
vn 0.2834 0.9536 -0.1016
vn 0.5047 0.8584 -0.0915
vn 0.6966 0.7134 -0.0760
vn 0.8481 0.5269 -0.0561
vn 0.9502 0.3098 -0.0330
vn 0.9972 0.0746 -0.0080
vn 0.9862 -0.1648 0.0176
vn 0.9178 -0.3947 0.0421
vn 0.0000 -0.1059 -0.9944
vn 0.0000 0.1059 0.9944
vn 0.0000 0.1060 0.9944
vn -0.6335 -0.7694 0.0820
vn -0.8416 -0.5370 0.0572
vn -0.9673 -0.2521 0.0269
vn -0.9983 0.0574 -0.0061
vn -0.9316 0.3614 -0.0385
vn -0.7737 0.6300 -0.0671
vn -0.5401 0.8369 -0.0892
vn -0.2536 0.9619 -0.1025
vn 0.0578 0.9927 -0.1058
vn 0.3634 0.9264 -0.0987
vn 0.6131 0.7856 -0.0837
vn 0.6130 0.7856 -0.0837
vn 0.7967 0.6010 -0.0640
vn 0.9259 0.3755 -0.0400
vn 0.9673 0.2521 -0.0269
vn 0.9921 0.1244 -0.0133
vn 0.9907 -0.1351 0.0144
vn 0.9218 -0.3855 0.0411
vn 0.7737 -0.6300 0.0671
vn 0.5401 -0.8369 0.0892
vn 0.2536 -0.9619 0.1025
vn -0.0578 -0.9927 0.1058
vn -0.3634 -0.9264 0.0987
vn -0.0000 -0.1060 -0.9944
usemtl None
s off
f 1//1 2//1 3//1
f 3//1 2//1 4//1
f 1//2 3//2 5//2
f 1//2 5//2 6//2
f 6//3 5//3 7//3
f 6//3 7//3 8//3
f 8//4 7//4 9//4
f 8//4 9//4 10//4
f 10//5 9//5 11//5
f 10//5 11//5 12//5
f 12//6 11//6 13//6
f 12//6 13//6 14//6
f 14//7 13//7 15//7
f 14//7 15//7 16//7
f 16//8 15//8 17//8
f 16//8 17//8 18//8
f 18//9 17//9 19//9
f 18//9 19//9 20//9
f 20//10 19//10 21//10
f 20//10 21//10 22//10
f 22//11 21//11 23//11
f 22//11 23//11 24//11
f 24//12 23//12 25//12
f 24//12 25//12 26//12
f 26//13 25//13 27//13
f 26//13 27//13 28//13
f 28//14 27//14 29//14
f 28//14 29//14 30//14
f 31//15 30//15 32//15
f 32//15 30//15 29//15
f 31//16 32//16 33//16
f 31//16 33//16 34//16
f 34//17 33//17 35//17
f 34//17 35//17 36//17
f 36//18 35//18 37//18
f 36//18 37//18 38//18
f 38//19 37//19 39//19
f 38//19 39//19 40//19
f 40//20 39//20 41//20
f 40//20 41//20 42//20
f 42//21 41//21 43//21
f 42//21 43//21 44//21
f 44//22 43//22 45//22
f 44//22 45//22 46//22
f 46//23 45//23 47//23
f 46//23 47//23 48//23
f 48//24 47//24 49//24
f 48//24 49//24 50//24
f 50//25 49//25 51//25
f 50//25 51//25 52//25
f 52//26 51//26 53//26
f 52//26 53//26 54//26
f 54//27 53//27 55//27
f 54//27 55//27 56//27
f 56//28 55//28 4//28
f 56//28 4//28 2//28
f 1//29 6//29 30//29
f 30//29 6//29 8//29
f 30//29 8//29 10//29
f 10//29 12//29 30//29
f 30//29 12//29 14//29
f 30//29 14//29 16//29
f 16//29 18//29 30//29
f 30//29 18//29 20//29
f 30//29 20//29 22//29
f 1//29 30//29 2//29
f 2//29 30//29 31//29
f 2//29 31//29 34//29
f 22//29 24//29 30//29
f 30//29 24//29 26//29
f 30//29 26//29 28//29
f 34//29 36//29 2//29
f 2//29 36//29 38//29
f 2//29 38//29 40//29
f 40//29 42//29 2//29
f 2//29 42//29 44//29
f 2//29 44//29 46//29
f 46//29 48//29 2//29
f 2//29 48//29 50//29
f 2//29 50//29 56//29
f 56//29 50//29 52//29
f 56//29 52//29 54//29
f 32//30 4//30 55//30
f 32//30 49//30 47//30
f 47//30 45//30 32//30
f 32//30 45//30 43//30
f 32//31 43//31 33//31
f 4//30 32//30 3//30
f 3//30 32//30 29//30
f 3//30 29//30 27//30
f 27//30 25//30 3//30
f 3//30 25//30 23//30
f 3//30 23//30 21//30
f 21//30 19//30 3//30
f 3//30 19//30 17//30
f 3//30 17//30 15//30
f 55//31 53//31 32//31
f 32//30 53//30 51//30
f 32//31 51//31 49//31
f 43//30 41//30 39//30
f 11//31 9//31 7//31
f 39//31 37//31 43//31
f 43//30 37//30 35//30
f 43//30 35//30 33//30
f 15//30 13//30 3//30
f 3//31 13//31 11//31
f 3//31 11//31 5//31
f 5//30 11//30 7//30
f 57//32 58//32 59//32
f 57//32 59//32 60//32
f 60//33 59//33 61//33
f 60//33 61//33 62//33
f 62//34 61//34 63//34
f 62//34 63//34 64//34
f 64//35 63//35 65//35
f 64//35 65//35 66//35
f 66//36 65//36 67//36
f 66//36 67//36 68//36
f 68//37 67//37 69//37
f 68//37 69//37 70//37
f 70//38 69//38 71//38
f 70//38 71//38 72//38
f 72//39 71//39 73//39
f 72//39 73//39 74//39
f 74//40 73//40 75//40
f 74//40 75//40 76//40
f 76//41 75//41 77//41
f 76//41 77//41 78//41
f 79//22 78//22 80//22
f 80//22 78//22 77//22
f 79//42 80//42 81//42
f 79//43 81//43 82//43
f 82//44 81//44 83//44
f 82//44 83//44 84//44
f 84//45 83//45 85//45
f 84//45 85//45 86//45
f 87//46 86//46 88//46
f 88//46 86//46 85//46
f 87//47 88//47 89//47
f 87//47 89//47 90//47
f 90//48 89//48 91//48
f 90//48 91//48 92//48
f 92//49 91//49 93//49
f 92//49 93//49 94//49
f 95//1 94//1 96//1
f 96//1 94//1 93//1
f 95//50 96//50 97//50
f 95//50 97//50 98//50
f 98//51 97//51 99//51
f 98//51 99//51 100//51
f 100//52 99//52 101//52
f 100//52 101//52 102//52
f 102//53 101//53 103//53
f 102//53 103//53 104//53
f 104//54 103//54 105//54
f 104//54 105//54 106//54
f 106//32 105//32 107//32
f 106//32 107//32 108//32
f 108//33 107//33 109//33
f 108//33 109//33 110//33
f 110//34 109//34 111//34
f 110//34 111//34 112//34
f 112//35 111//35 113//35
f 112//35 113//35 114//35
f 114//36 113//36 115//36
f 114//36 115//36 116//36
f 117//15 116//15 118//15
f 118//15 116//15 115//15
f 119//34 117//34 120//34
f 120//34 117//34 118//34
f 57//8 119//8 58//8
f 58//8 119//8 120//8
f 82//29 84//29 119//29
f 119//29 84//29 86//29
f 119//29 86//29 117//29
f 117//29 86//29 87//29
f 117//29 87//29 90//29
f 57//29 78//29 119//29
f 119//29 78//29 79//29
f 119//29 79//29 82//29
f 90//29 92//29 117//29
f 117//55 92//55 94//55
f 117//29 94//29 116//29
f 116//29 94//29 95//29
f 116//29 95//29 114//29
f 114//29 95//29 112//29
f 102//55 104//55 100//55
f 100//29 104//29 98//29
f 104//29 106//29 98//29
f 98//29 106//29 108//29
f 98//55 108//55 95//55
f 95//29 108//29 110//29
f 95//29 110//29 112//29
f 57//29 60//29 78//29
f 78//29 60//29 62//29
f 78//29 62//29 64//29
f 64//29 66//29 78//29
f 78//55 66//55 68//55
f 78//29 68//29 76//29
f 76//29 68//29 74//29
f 74//29 68//29 70//29
f 74//29 70//29 72//29
f 93//31 91//31 118//31
f 83//30 81//30 120//30
f 120//31 81//31 80//31
f 120//30 80//30 58//30
f 58//30 80//30 77//30
f 91//30 89//30 118//30
f 118//30 89//30 88//30
f 118//30 88//30 120//30
f 120//30 88//30 85//30
f 120//31 85//31 83//31
f 93//30 118//30 96//30
f 96//30 118//30 115//30
f 96//30 115//30 113//30
f 113//30 111//30 96//30
f 96//30 111//30 109//30
f 96//30 109//30 107//30
f 107//30 105//30 96//30
f 96//30 105//30 103//30
f 96//30 103//30 97//30
f 97//31 103//31 101//31
f 97//30 101//30 99//30
f 63//30 77//30 65//30
f 65//30 77//30 67//30
f 63//31 61//31 77//31
f 77//30 61//30 59//30
f 77//30 59//30 58//30
f 77//31 75//31 67//31
f 67//30 75//30 73//30
f 67//31 73//31 69//31
f 69//30 73//30 71//30
